<mxfile host="app.diagrams.net" modified="2022-07-25T10:48:50.414Z" agent="5.0 (Macintosh; Intel Mac OS X 10_15_7) AppleWebKit/537.36 (KHTML, like Gecko) Chrome/103.0.0.0 Safari/537.36" etag="vKgyX2jOsrSikYXk9DMn" version="20.2.0" type="github">
  <diagram name="Page-1" id="c37626ed-c26b-45fb-9056-f9ebc6bb27b6">
    <mxGraphModel dx="946" dy="507" grid="1" gridSize="10" guides="1" tooltips="1" connect="1" arrows="1" fold="1" page="1" pageScale="1" pageWidth="1100" pageHeight="850" background="none" math="0" shadow="0">
      <root>
        <mxCell id="0" />
        <mxCell id="1" parent="0" />
        <mxCell id="59l6YtmiwYAptjqG7js1-3" value="" style="edgeStyle=orthogonalEdgeStyle;rounded=0;orthogonalLoop=1;jettySize=auto;html=1;" edge="1" parent="1" source="59l6YtmiwYAptjqG7js1-1" target="59l6YtmiwYAptjqG7js1-2">
          <mxGeometry relative="1" as="geometry">
            <Array as="points">
              <mxPoint x="590" y="140" />
              <mxPoint x="390" y="140" />
            </Array>
          </mxGeometry>
        </mxCell>
        <mxCell id="59l6YtmiwYAptjqG7js1-5" value="" style="edgeStyle=orthogonalEdgeStyle;rounded=0;orthogonalLoop=1;jettySize=auto;html=1;dashed=1;" edge="1" parent="1">
          <mxGeometry relative="1" as="geometry">
            <mxPoint x="588" y="141" as="sourcePoint" />
            <mxPoint x="768" y="201" as="targetPoint" />
            <Array as="points">
              <mxPoint x="768" y="141" />
            </Array>
          </mxGeometry>
        </mxCell>
        <mxCell id="59l6YtmiwYAptjqG7js1-1" value="防火墙" style="rounded=0;whiteSpace=wrap;html=1;" vertex="1" parent="1">
          <mxGeometry x="530" y="30" width="120" height="60" as="geometry" />
        </mxCell>
        <mxCell id="59l6YtmiwYAptjqG7js1-16" value="" style="edgeStyle=orthogonalEdgeStyle;rounded=0;orthogonalLoop=1;jettySize=auto;html=1;" edge="1" parent="1" source="59l6YtmiwYAptjqG7js1-2" target="59l6YtmiwYAptjqG7js1-15">
          <mxGeometry relative="1" as="geometry" />
        </mxCell>
        <mxCell id="59l6YtmiwYAptjqG7js1-27" value="" style="edgeStyle=orthogonalEdgeStyle;rounded=0;orthogonalLoop=1;jettySize=auto;html=1;entryX=0.5;entryY=0;entryDx=0;entryDy=0;" edge="1" parent="1" target="59l6YtmiwYAptjqG7js1-26">
          <mxGeometry relative="1" as="geometry">
            <mxPoint x="390" y="255" as="sourcePoint" />
            <mxPoint x="610" y="345" as="targetPoint" />
            <Array as="points">
              <mxPoint x="390" y="305" />
              <mxPoint x="850" y="305" />
            </Array>
          </mxGeometry>
        </mxCell>
        <mxCell id="59l6YtmiwYAptjqG7js1-2" value="nginx服务" style="whiteSpace=wrap;html=1;rounded=0;" vertex="1" parent="1">
          <mxGeometry x="330" y="200" width="120" height="60" as="geometry" />
        </mxCell>
        <mxCell id="59l6YtmiwYAptjqG7js1-4" value="nginx服务" style="whiteSpace=wrap;html=1;rounded=0;" vertex="1" parent="1">
          <mxGeometry x="710" y="200" width="120" height="60" as="geometry" />
        </mxCell>
        <mxCell id="59l6YtmiwYAptjqG7js1-13" value="&lt;span style=&quot;caret-color: rgb(51, 51, 51); color: rgb(51, 51, 51); font-family: &amp;quot;Open Sans&amp;quot;, &amp;quot;Clear Sans&amp;quot;, &amp;quot;Helvetica Neue&amp;quot;, Helvetica, Arial, &amp;quot;Segoe UI Emoji&amp;quot;, sans-serif; font-size: 16px; orphans: 4; text-align: start; text-size-adjust: auto; background-color: rgb(255, 255, 255);&quot;&gt;keepalived&lt;/span&gt;" style="shape=doubleArrow;whiteSpace=wrap;html=1;" vertex="1" parent="1">
          <mxGeometry x="470" y="190" width="230" height="80" as="geometry" />
        </mxCell>
        <mxCell id="59l6YtmiwYAptjqG7js1-15" value="官网web服务器" style="whiteSpace=wrap;html=1;rounded=0;" vertex="1" parent="1">
          <mxGeometry x="230" y="350" width="120" height="60" as="geometry" />
        </mxCell>
        <mxCell id="59l6YtmiwYAptjqG7js1-37" value="" style="edgeStyle=none;rounded=0;orthogonalLoop=1;jettySize=auto;html=1;" edge="1" parent="1" source="59l6YtmiwYAptjqG7js1-17" target="59l6YtmiwYAptjqG7js1-36">
          <mxGeometry relative="1" as="geometry" />
        </mxCell>
        <mxCell id="59l6YtmiwYAptjqG7js1-17" value="后台web服务器" style="whiteSpace=wrap;html=1;rounded=0;" vertex="1" parent="1">
          <mxGeometry x="490" y="350" width="120" height="60" as="geometry" />
        </mxCell>
        <mxCell id="59l6YtmiwYAptjqG7js1-26" value="文件服务器" style="whiteSpace=wrap;html=1;rounded=0;" vertex="1" parent="1">
          <mxGeometry x="790" y="340" width="120" height="60" as="geometry" />
        </mxCell>
        <mxCell id="59l6YtmiwYAptjqG7js1-31" value="" style="endArrow=classic;html=1;rounded=0;entryX=0.5;entryY=0;entryDx=0;entryDy=0;" edge="1" parent="1" target="59l6YtmiwYAptjqG7js1-17">
          <mxGeometry width="50" height="50" relative="1" as="geometry">
            <mxPoint x="549" y="305" as="sourcePoint" />
            <mxPoint x="599" y="255" as="targetPoint" />
          </mxGeometry>
        </mxCell>
        <mxCell id="59l6YtmiwYAptjqG7js1-39" value="" style="edgeStyle=none;rounded=0;orthogonalLoop=1;jettySize=auto;html=1;" edge="1" parent="1" source="59l6YtmiwYAptjqG7js1-36" target="59l6YtmiwYAptjqG7js1-38">
          <mxGeometry relative="1" as="geometry" />
        </mxCell>
        <mxCell id="59l6YtmiwYAptjqG7js1-36" value="ZK服务器" style="whiteSpace=wrap;html=1;rounded=0;" vertex="1" parent="1">
          <mxGeometry x="490" y="490" width="120" height="60" as="geometry" />
        </mxCell>
        <mxCell id="59l6YtmiwYAptjqG7js1-41" value="" style="edgeStyle=none;rounded=0;orthogonalLoop=1;jettySize=auto;html=1;" edge="1" parent="1" source="59l6YtmiwYAptjqG7js1-38" target="59l6YtmiwYAptjqG7js1-40">
          <mxGeometry relative="1" as="geometry" />
        </mxCell>
        <mxCell id="59l6YtmiwYAptjqG7js1-43" value="" style="edgeStyle=none;rounded=0;orthogonalLoop=1;jettySize=auto;html=1;" edge="1" parent="1" source="59l6YtmiwYAptjqG7js1-38" target="59l6YtmiwYAptjqG7js1-42">
          <mxGeometry relative="1" as="geometry" />
        </mxCell>
        <mxCell id="59l6YtmiwYAptjqG7js1-38" value="provider(全服务)" style="whiteSpace=wrap;html=1;rounded=0;" vertex="1" parent="1">
          <mxGeometry x="490" y="630" width="120" height="60" as="geometry" />
        </mxCell>
        <mxCell id="59l6YtmiwYAptjqG7js1-40" value="后台数据库" style="whiteSpace=wrap;html=1;rounded=0;" vertex="1" parent="1">
          <mxGeometry x="650" y="770" width="120" height="60" as="geometry" />
        </mxCell>
        <mxCell id="59l6YtmiwYAptjqG7js1-42" value="官网数据库" style="whiteSpace=wrap;html=1;rounded=0;" vertex="1" parent="1">
          <mxGeometry x="340" y="770" width="120" height="60" as="geometry" />
        </mxCell>
      </root>
    </mxGraphModel>
  </diagram>
</mxfile>
